<svg width="360" height="508" fill="none" xmlns="http://www.w3.org/2000/svg"><path d="M0 107.424C0 18.96 18.96 0 107.424 0h145.152C341.04 0 360 18.96 360 107.424v293.152C360 489.04 341.04 508 252.576 508H107.424C18.96 508 0 489.04 0 400.576V107.424z" fill="#9C9C9C"/><path d="M0 107.424C0 18.96 18.96 0 107.424 0h145.152C341.04 0 360 18.96 360 107.424v293.152C360 489.04 341.04 508 252.576 508H107.424C18.96 508 0 489.04 0 400.576V107.424z" fill="#DFF6F4"/><path d="M0 107.424C0 18.96 18.96 0 107.424 0h145.152C341.04 0 360 18.96 360 107.424v293.152C360 489.04 341.04 508 252.576 508H107.424C18.96 508 0 489.04 0 400.576V107.424z" fill="url(#a)"/><path d="M0 107.424C0 18.96 18.96 0 107.424 0h145.152C341.04 0 360 18.96 360 107.424v293.152C360 489.04 341.04 508 252.576 508H107.424C18.96 508 0 489.04 0 400.576V107.424z" fill="#fff"/><defs><linearGradient id="a" x1="360" y1="498.43" x2="-97.195" y2="235.119" gradientUnits="userSpaceOnUse"><stop stop-color="#ADEAE3"/><stop offset="1" stop-color="#DFF6F4"/></linearGradient></defs></svg>