<svg width="33" height="32" fill="none" xmlns="http://www.w3.org/2000/svg"><g clip-path="url(#a)"><path d="M5.53 25.69l6.564-18.047a.973.973 0 011.605-.357l11.485 11.485a.974.974 0 01-.358 1.604L6.78 26.939a.974.974 0 01-1.25-1.249zM21.469 9s0-3 3-3 3-3 3-3M18.469 2v3M27.469 14l2 2M27.469 10l3-1M10.23 12.761l9.478 9.478M13.108 24.639L7.83 19.36" stroke="#fff" stroke-opacity=".8" stroke-width="2" stroke-linecap="round" stroke-linejoin="round"/></g><defs><clipPath id="a"><path fill="#fff" transform="translate(.469)" d="M0 0H32V32H0z"/></clipPath></defs></svg>