<svg width="33" height="32" fill="none" xmlns="http://www.w3.org/2000/svg"><g clip-path="url(#a)"><path d="M16.469 21a5 5 0 100-10 5 5 0 000 10z" stroke="#fff" stroke-opacity=".8" stroke-width="2" stroke-miterlimit="10"/><path d="M22.469 4h-12a6 6 0 00-6 6v12a6 6 0 006 6h12a6 6 0 006-6V10a6 6 0 00-6-6z" stroke="#fff" stroke-opacity=".8" stroke-width="2" stroke-linecap="round" stroke-linejoin="round"/><path d="M22.969 11a1.5 1.5 0 100-3 1.5 1.5 0 000 3z" fill="#fff" fill-opacity=".8"/></g><defs><clipPath id="a"><path fill="#fff" transform="translate(.469)" d="M0 0H32V32H0z"/></clipPath></defs></svg>