<svg width="33" height="32" fill="none" xmlns="http://www.w3.org/2000/svg"><g clip-path="url(#a)"><path d="M6.469 23V9M26.469 9v14M12.469 16v2M16.469 15v3M20.469 14v4M27.469 5h-22a1 1 0 00-1 1v2a1 1 0 001 1h22a1 1 0 001-1V6a1 1 0 00-1-1zM16.469 23v4M16.469 31a2 2 0 100-4 2 2 0 000 4zM4.469 23h24" stroke="#fff" stroke-opacity=".8" stroke-width="2" stroke-linecap="round" stroke-linejoin="round"/></g><defs><clipPath id="a"><path fill="#fff" transform="translate(.469)" d="M0 0H32V32H0z"/></clipPath></defs></svg>