<svg width="167" height="32" fill="none" xmlns="http://www.w3.org/2000/svg"><path d="M13.448 21.506a4.477 4.477 0 01-5.953 2.145c-2.25-1.05-3.22-3.72-2.16-5.952a4.477 4.477 0 015.952-2.144c.97.481 1.764 1.269 2.205 2.232h3.484c-1.014-4.158-5.248-6.74-9.437-5.69-4.19 1.05-6.791 5.208-5.733 9.365 1.059 4.158 5.248 6.74 9.437 5.69 2.823-.7 5.072-2.889 5.733-5.69h-3.528v.044zM29.324 12.534c-.97-.437-2.029-.7-3.131-.656-1.103 0-2.205.35-3.132.963v-.438h-3.175V26.8h3.22v-6.914c-.045-.919 0-1.881.22-2.8v-.088a2.424 2.424 0 011.19-1.444 3.328 3.328 0 013.485 0l1.323-3.02zM41.496 12.403v6.915c.044.919 0 1.881-.22 2.8v.088a2.424 2.424 0 01-1.19 1.444c-1.06.613-2.382.613-3.485-.044a2.425 2.425 0 01-1.19-1.444v-.087a12.009 12.009 0 01-.22-2.801v-6.87h-3.22v7.833c-.088 1.269.132 2.582.53 3.763a4.692 4.692 0 002.6 2.582c.971.438 2.03.7 3.132.656 1.102 0 2.205-.35 3.131-.962v.481h3.175V12.403h-3.043zM51.811 26.801v-6.914c-.044-.963.044-1.882.22-2.8v-.088a2.424 2.424 0 011.191-1.445 3.328 3.328 0 013.484 0A2.424 2.424 0 0157.896 17v.087c.177.92.221 1.882.177 2.8v6.915h3.175v-7.877a9.079 9.079 0 00-.529-3.763 4.692 4.692 0 00-2.602-2.582c-.97-.438-2.028-.7-3.13-.657-1.103 0-2.206.35-3.132.963v-.438h-3.22v14.354h3.176zM76.024 21.505a4.477 4.477 0 01-5.954 2.145c-2.249-1.05-3.219-3.676-2.16-5.908a4.477 4.477 0 015.953-2.144c.97.481 1.764 1.269 2.205 2.231h3.484c-1.015-4.157-5.248-6.739-9.438-5.689-4.189 1.05-6.79 5.208-5.732 9.365 1.058 4.158 5.247 6.74 9.437 5.69 2.822-.7 5.071-2.889 5.733-5.69h-3.528zM85.679 26.802v-6.914c-.044-.92 0-1.882.22-2.8V17a2.424 2.424 0 011.19-1.444 3.328 3.328 0 013.485 0A2.425 2.425 0 0191.764 17v.087c.177.92.265 1.882.22 2.8v6.915h3.176v-7.877c.088-1.269-.132-2.582-.53-3.763a4.692 4.692 0 00-2.601-2.582c-.97-.438-2.029-.7-3.131-.657a5.73 5.73 0 00-3.131.963V4.572h-3.22v22.23h3.132zM106.628 11.88h-.573c-1.367.087-2.69.568-3.837 1.356V4.572h-3.175v22.23h3.175v-.831c3.528 2.45 8.423 1.619 10.893-1.882 2.469-3.501 1.632-8.358-1.896-10.809-1.323-.919-2.955-1.444-4.587-1.4zm4.454 8.314v.132l-.132.525a3.031 3.031 0 01-.22.569v.087c-.618 1.27-1.764 2.144-3.132 2.45l-.44.088h-.574c-.22 0-.397 0-.617-.044h-.132a3.491 3.491 0 01-1.147-.35h-.088a4.981 4.981 0 01-1.014-.656c-.309-.263-.574-.613-.794-.92-.088-.174-.221-.35-.309-.568-.529-1.181-.485-2.494.044-3.676.662-1.4 2.029-2.363 3.616-2.538h.441c2.426.044 4.366 1.925 4.41 4.332.132.175.132.35.088.57zM116.994 19.581c.044 4.289 3.572 7.746 7.894 7.702 1.543 0 2.998-.481 4.277-1.313v.832h3.175V12.405h-3.175v.875c-1.146-.788-2.469-1.225-3.836-1.357h-.574c-4.233 0-7.717 3.414-7.761 7.658zm3.307 0c0-2.45 2.029-4.463 4.498-4.463h.441a4.66 4.66 0 013.616 2.538 4.45 4.45 0 01.045 3.676c-.089.175-.177.394-.309.569-.221.35-.485.656-.794.919a5.014 5.014 0 01-1.014.656h-.088c-.353.175-.75.263-1.147.35h-.088c-.221.044-.397.044-.618.044h-.529l-.441-.088a4.627 4.627 0 01-3.087-2.406v-.088a2.19 2.19 0 01-.22-.569l-.132-.525v-.131a7.102 7.102 0 01-.133-.482zM147.023 16.693v-.088c0-2.363-1.808-4.726-5.865-4.77-4.057-.044-5.821 2.363-5.865 4.683v.175c.088 1.356.882 3.063 3.881 3.763l2.69.613c.705.175 1.896.525 1.984 1.444 0 1.225-1.587 1.838-2.69 1.838-1.323 0-2.69-.7-2.69-1.882v-.087h-3.175v.043c0 2.363 1.808 4.727 5.865 4.77 4.057.044 5.865-2.407 5.865-4.77v-.043c-.088-1.357-.837-3.107-3.88-3.808l-2.69-.612c-.574-.131-1.985-.525-1.985-1.4 0-1.357 1.411-1.839 2.69-1.839 1.323 0 2.69.7 2.69 1.882v.088h3.175zM164.749 19.274c0-4.683-3.219-7.44-7.452-7.44-4.102-.131-7.541 3.02-7.674 7.09v.569c-.176 4.113 3.043 7.57 7.189 7.745h.485c1.543 0 3.087-.35 4.454-1.138a5.965 5.965 0 002.866-3.72h-3.131c-.75 1.357-2.117 2.014-4.057 2.014-2.602 0-4.542-2.013-4.542-3.939h11.818c.044-.481.044-.787.044-1.181zm-11.906-1.444a4.102 4.102 0 014.277-3.195c2.249 0 4.057 1.313 4.366 3.195h-8.643z" fill="#FEFEFE"/></svg>