<svg width="121" height="59" fill="none" xmlns="http://www.w3.org/2000/svg"><g clip-path="url(#a)"><path d="M39.043 57.813c-2.66 0-4.364-2.045-4.364-5.09 0-3.069 1.704-5.09 4.364-5.09 2.68 0 4.385 2.043 4.385 5.09 0 3.045-1.704 5.09-4.385 5.09zm0-11.09c-3.341 0-5.5 2.43-5.5 6 0 3.545 2.159 5.997 5.476 5.997 3.34 0 5.524-2.452 5.524-5.998 0-3.569-2.183-6-5.5-6zm-8.727-3.181l3.34-.252v-.704h-7.908v.704l3.363.228v6.136H20.25v-6.136l3.363-.228v-.704h-7.91v.704l3.319.252v13.793l-3.319.227v.706h7.91v-.706l-3.363-.227v-6.773h8.86v6.773l-3.362.227v.706h7.908v-.706l-3.34-.227V43.542zm-10.09-42.52h5.046c2.226 0 3.59 1.43 3.59 3.569 0 2.158-1.182 3.795-3.41 3.795h-5.226V1.022zm3.521 14.066l-3.521-.225V9.295h5.387c2.816 0 4.453-2 4.453-4.682 0-2.636-1.728-4.499-4.567-4.499h-9.796v.703l3.295.25v13.796l-3.295.225v.706h8.044v-.706zm20.864 21.271v.66h6.43v-.636l-2.591-.229v-6.953c.931-1.568 2.568-2.726 4.364-2.726 1.794 0 2.795 1.158 2.795 2.976v6.703l-2.637.229v.636h6.205v-.66l-2.432-.227v-6.794c0-2.069-1-3.84-3.704-3.84-1.932 0-3.624 1.085-4.613 2.568v-2.432l-.636-.183c-.933 1.024-2.16 1.477-3.636 1.477v.478c1.09.204 2.25.182 3.158-.271v8.997l-2.703.227zM20.226 22.271h5.295c2.25 0 3.682 1.363 3.682 3.453 0 2.091-1.204 3.592-3.636 3.592h-5.341V22.27zm3.521 14.044l-3.521-.229v-5.839h4.681l3.319 6.772h4.157v-.704l-3.385-.341-2.819-5.727c2.659-.137 4.228-2.046 4.228-4.523 0-2.544-1.772-4.364-4.5-4.364H15.703v.706l3.319.25v13.77l-3.319.229v.704h8.044v-.704zm78.697-21.408V8.113c0-2.067-.999-3.865-3.704-3.865-1.908 0-3.602 1.089-4.59 2.591V4.386l-.636-.183c-.932 1.023-2.158 1.5-3.637 1.478v.5c1.092.204 2.251.182 3.16-.272v8.998l-2.705.227v.66h6.431v-.636l-2.59-.229V7.976c.931-1.569 2.568-2.75 4.34-2.75 1.796 0 2.795 1.181 2.795 3v6.703l-2.636.229v.636h6.204v-.66l-2.432-.227zm-37.36 37.201c-1.477-.363-3.34-.864-3.34-2.476 0-1.07.773-2.024 2.728-2.024 1.75 0 2.659.774 3.477 2.203l.727 1.274.568-.114-.727-4.294h-.614l-.024 1.886c-.634-1.022-1.772-1.84-3.567-1.84-2.272 0-3.635 1.272-3.635 2.931 0 2.296 2.611 3 4.18 3.41 2.137.543 3.592 1.067 3.592 2.61 0 1.366-1.16 2.183-2.91 2.183-1.818 0-2.953-.907-4.067-2.727l-.706-1.158-.588.113.748 4.43h.636l-.068-2.135c.863 1.433 2.182 2.34 4.182 2.34 2.318 0 3.84-1.226 3.84-3.134 0-2.206-1.932-2.842-4.432-3.478zm37.316-22.86c0-2.069-.863-3.75-3.273-3.75-1.842 0-3.284.974-4.25 2.477-.313-1.386-1.226-2.478-3.112-2.478-1.66 0-3.218 1.064-4.16 2.5v-2.363l-.637-.183c-.954 1.024-2.18 1.477-3.635 1.477v.478c1.068.204 2.25.159 3.159-.295v9.021l-2.705.227v.66h5.931v-.636l-2.089-.229v-7.067c.863-1.499 2.294-2.612 3.861-2.612 1.82 0 2.41 1.227 2.41 3.09v6.59l-2.227.228v.636h5.612v-.636l-2.248-.229V29.43c0-.138 0-.297-.023-.455.955-1.615 2.271-2.5 3.818-2.5 1.84 0 2.432 1.25 2.432 3.068v6.611l-2.069.229v.636h5.681v-.636l-2.476-.25v-6.886zM82.834 15.133v.66h6.475v-.66l-2.635-.227V4.41l-.636-.206c-.977 1.023-2.227 1.5-3.66 1.478v.5c1.068.204 2.25.158 3.16-.295v9.021l-2.704.227zM72.38 51.63c.34-2.432 1.886-3.998 4.113-3.998 1.84 0 3.704 1.203 3.773 3.998H72.38zm4.135-4.908c-3.204 0-5.317 2.454-5.317 6 0 3.545 2.137 5.997 5.524 5.997 2.474 0 3.905-1.158 4.475-2.908l-.705-.25c-.64 1.465-1.784 2.25-3.634 2.25-2.865 0-4.545-1.977-4.545-5.068v-.227h9.02c.022-.16.022-.523.022-.728 0-2.5-1.567-5.066-4.84-5.066zm.819-10.16c-2.66 0-4.364-2.044-4.364-5.09 0-3.068 1.704-5.067 4.364-5.067 2.682 0 4.386 2.023 4.386 5.067 0 3.046-1.704 5.09-4.386 5.09zm0-11.066c-3.34 0-5.5 2.409-5.5 5.976 0 3.546 2.16 6 5.478 6 3.34 0 5.522-2.454 5.522-6 0-3.567-2.181-5.976-5.5-5.976zM56.972 46.861l-.636-.184c-.976 1.023-2.228 1.499-3.659 1.478v.498c1.068.205 2.228.183 3.137-.271v6.748c-.955 1.5-2.59 2.637-4.364 2.637-1.772 0-2.772-1.182-2.772-2.978v-7.928l-.614-.184c-.955 1.023-1.932 1.499-3.34 1.478v.498c.953.205 2 .183 2.817-.204v6.408c0 2.047.979 3.863 3.728 3.863 1.93 0 3.596-1.075 4.567-2.522l.022 2.295.068.045 3.546-.34v-.614h-2.5V46.86zM69.766 5.976v6.409c0 2.045.978 3.863 3.727 3.863 1.933 0 3.598-1.077 4.568-2.521l.023 2.294.068.044 3.544-.338v-.615h-2.5V4.386l-.634-.183c-.977 1.023-2.229 1.5-3.661 1.478v.5c1.069.204 2.228.182 3.137-.272v6.75c-.955 1.498-2.592 2.635-4.364 2.635-1.772 0-2.771-1.182-2.771-2.978v-7.93l-.614-.183c-.955 1.023-1.93 1.5-3.34 1.478v.5c.954.204 2 .182 2.817-.205zM44.36 5.909v8.998l-2.704.227v.66h6.43v-.636l-2.59-.229V7.976c.931-1.569 2.568-2.75 4.363-2.75 1.795 0 2.796 1.181 2.796 3v6.703l-2.636.229v.636h6.204v-.66l-2.432-.227V8.113c0-2.067-1-3.865-3.704-3.865-1.932 0-3.626 1.089-4.613 2.591V4.386l-.636-.183c-.933 1.023-2.16 1.5-3.636 1.478v.5c1.09.204 2.25.182 3.158-.272zm23.906 28.11c-.568 1.614-1.976 2.545-3.727 2.545-2.567 0-4.09-1.955-4.09-5.045 0-3.022 1.705-5.113 4.318-5.113 1.523 0 2.841.773 3.5 2.045v5.568zm-3.636-8.522c-3.18 0-5.317 2.478-5.317 6.068 0 3.522 1.886 5.908 5.045 5.908 1.727 0 3.186-.805 3.93-2.181l.024 1.954.069.046 3.59-.341v-.613h-2.567V19.974l-.614-.181c-.992 1.277-2.207 1.954-3.614 1.932v.5c1.084.239 2.342.003 3.09-.52v5.542c-.818-1.113-2.09-1.75-3.636-1.75zm-4.568-9.93l2.273.204c2.659.24 3.476 1 3.476 2 0 1.386-1.409 2.455-4.249 2.455-2.545 0-4-1.023-4-2.387 0-1.023.864-2 2.5-2.272zM58.2 8.498c0-1.84 1.384-3.361 3.453-3.361 2 0 3.364 1.521 3.364 3.407 0 1.774-1.295 3.317-3.432 3.317a3.347 3.347 0 01-3.386-3.363zm-1.682 9.409c0 1.75 1.658 3.204 5.02 3.204 3.524 0 5.366-1.477 5.366-3.431 0-2.159-2.523-2.731-5-2.932-1.842-.158-3.546-.226-3.546-1.137 0-.454.455-.885 2.478-.885h.749c2.727 0 4.478-1.864 4.478-4.272 0-1.093-.41-2.115-1.114-2.864.159-2.068 1.977-1.045 1.977-2.114 0-.454-.273-.68-.727-.68-1.046 0-1.841 1.045-1.978 2.18-.682-.453-1.523-.728-2.498-.728-2.773 0-4.569 1.866-4.569 4.206 0 1.704.865 3 2.113 3.682-1.226.112-1.886.75-1.886 1.612 0 .613.387 1.205 1.41 1.546-1.32.341-2.273 1.409-2.273 2.613zM40.361 34.724c-.796.886-2.364 1.84-4.045 1.84-1.342 0-2.456-.636-2.456-1.93 0-1.617 1.387-3.115 6.501-3.205v3.295zm-7.613-.09c0 1.704 1.317 2.839 3.386 2.839 1.863 0 3.374-.921 4.295-1.84.199.993.908 1.499 1.885 1.499 1.07 0 1.773-.568 2-1.75l-.522-.227c-.182.704-.523 1.091-1.136 1.091-.796 0-1.16-.409-1.16-1.865v-4.93c0-2.272-.932-3.954-3.954-3.954-1.772 0-2.795.522-3.5 1.159-.613.569-.796 1.09-.796 1.41 0 .385.275.658.684.658.544 0 .614-.523.931-1.114.386-.682.977-1.204 2.59-1.204 1.819 0 2.91.978 2.91 2.932v1.272c-4.864.045-7.613 1.431-7.613 4.023zm53.31-32.68c.548 0 1.002-.43 1.002-.977A.989.989 0 0086.059 0a.97.97 0 00-.977.977.97.97 0 00.977.978zM35.703 5.16c1.84 0 3.704 1.204 3.772 4H31.59c.34-2.434 1.886-4 4.113-4zm.227 11.089c2.478 0 3.909-1.16 4.477-2.908l-.703-.25c-.642 1.464-1.787 2.249-3.638 2.249-2.863 0-4.545-1.977-4.545-5.067v-.227h9.022c.022-.16.022-.524.022-.728 0-2.499-1.567-5.069-4.84-5.069-3.204 0-5.317 2.456-5.317 6 0 3.546 2.137 6 5.522 6zM0 58.266h1.206V.076H0v58.19zM119.375.075v58.192h1.206V.075h-1.206z" fill="#fff"/></g><defs><clipPath id="a"><path fill="#fff" d="M0 0H120.58V58.72H0z"/></clipPath></defs></svg>