<svg width="131" height="32" fill="none" xmlns="http://www.w3.org/2000/svg"><path d="M37.983 23.225c-1.086 0-1.83-.845-1.83-2.091V15.45h4.47v-4.014h-4.46l-.043-4.605h-4.94l.043 15.337c0 3.105 2.087 5.217 5.153 5.217 1.618 0 3.15-.232 4.364-.781v-3.908a5.857 5.857 0 01-2.757.528zM49.78 11.184c-4.6 0-8.134 3.549-8.134 8.26 0 4.668 3.535 7.921 8.41 7.921 2.747 0 5.323-.971 6.899-2.978l-3.79-1.711c-.767.697-1.938.971-2.98.971-1.704 0-3.407-.866-3.642-2.64h11.306c.17-.634.256-1.288.255-1.944 0-4.837-3.555-7.88-8.314-7.88h-.01zM46.542 17.9c.15-2.112 1.682-3.084 3.364-3.084 1.895 0 3.322 1.056 3.322 2.873v.211h-6.686zm-20.056 5.324c-1.086 0-1.831-.845-1.831-2.091V15.45h4.471v-4.014h-4.46l-.043-4.605h-4.94l.043 15.337c0 3.105 2.087 5.217 5.153 5.217 1.618 0 3.15-.232 4.364-.781v-3.908a5.808 5.808 0 01-2.757.528zM9.134 11.184c-4.237 0-8.687 2.767-8.687 8.344 0 4.647 3.151 7.9 7.133 7.9 2.278 0 4.002-.908 5.13-2.513l.15 2.239h4.78v-7.436c0-5.661-4.205-8.534-8.506-8.534zm0 11.956c-2.15 0-3.705-1.584-3.705-3.823 0-2.24 1.533-3.824 3.705-3.824 2.001 0 3.662 1.732 3.662 3.824 0 2.091-1.66 3.823-3.662 3.823zm99.046-11.682l-3.449 9.929-3.492-9.929h-5.365l6.43 15.675h4.812l6.43-15.675h-5.366zm12.796-.274c-4.599 0-8.133 3.549-8.133 8.26 0 4.668 3.534 7.921 8.41 7.921 2.747 0 5.323-.971 6.898-2.978l-3.789-1.711c-.767.697-1.938.971-2.981.971-1.703 0-3.407-.866-3.641-2.64h11.306c.17-.634.255-1.288.255-1.944 0-4.837-3.555-7.88-8.325-7.88zm3.449 6.717h-6.685c.149-2.112 1.682-3.084 3.364-3.084 1.895 0 3.321 1.056 3.321 2.873v.211zM92.063 4.571c-1.746 0-3.066 1.162-3.066 2.789 0 1.627 1.32 2.83 3.066 2.83 1.746 0 3.066-1.182 3.066-2.83 0-1.648-1.299-2.788-3.066-2.788zm-22.42 6.591a5.82 5.82 0 00-2.86.699 5.766 5.766 0 00-2.143 2.005l-.17-2.408H59.7v15.675h4.94v-8.218c.106-1.964 1.703-3.464 3.449-3.464 1.959 0 2.853 1.457 2.853 3.295v8.366h4.918v-9.126c0-3.972-2.438-6.824-6.217-6.824zm15.074 12.063c-1.085 0-1.83-.845-1.83-2.091V15.45h4.47v-4.014h-4.47l-.043-4.605h-4.94l.043 15.337c0 3.105 2.086 5.217 5.152 5.217 1.618 0 3.151-.232 4.365-.781v-3.908a5.807 5.807 0 01-2.747.528zm4.855-11.767v15.675h4.982V11.458a4.535 4.535 0 01-4.982 0z" fill="#FEFEFE"/></svg>