<svg width="154" height="32" fill="none" xmlns="http://www.w3.org/2000/svg"><path d="M45.687 0c-4.021 0-6.297 2.259-6.297 5.986 0 3.614 2.276 5.948 6.221 5.948 3.642 0 5.729-1.845 6.108-4.781h-2.732c-.265 1.657-1.29 2.673-3.338 2.673-2.238 0-3.604-1.318-3.604-3.878s1.214-3.877 3.604-3.877c1.973 0 2.997.978 3.263 2.673h2.731C51.263 1.92 49.405 0 45.687 0z" fill="#FEFEFE"/><path fill-rule="evenodd" clip-rule="evenodd" d="M58.699 11.972c3.832 0 6.184-2.334 6.184-6.024 0-3.84-2.58-5.948-6.184-5.948-3.832 0-6.184 2.146-6.184 6.024 0 3.84 2.58 5.948 6.184 5.948zm0-9.864c2.124 0 3.528 1.243 3.528 3.916 0 2.597-1.29 3.84-3.528 3.84-2.125 0-3.528-1.318-3.528-3.916 0-2.635 1.328-3.84 3.528-3.84z" fill="#FEFEFE"/><path d="M68.981.188h-2.617v11.558h2.617v-7.83c.683-1.318 1.631-1.92 3.149-1.92 1.897 0 2.845.865 2.845 2.71v7.04h2.618V4.367C77.555 1.581 76.037 0 73.343 0c-2.39 0-3.717 1.242-4.362 3.275V.188zM81.424 8.207h-2.731c.303 2.334 2.049 3.727 5.804 3.727 3.756 0 5.35-1.543 5.35-3.614 0-1.77-.835-2.974-3.377-3.238l-3.49-.414c-1.025-.113-1.404-.527-1.404-1.204 0-.829.645-1.431 2.618-1.431 2.01 0 2.693.678 2.845 1.656h2.731C89.353 1.506 87.95 0 84.233 0s-5.236 1.581-5.236 3.652c0 1.807.949 2.899 3.529 3.2l3.376.376c1.1.15 1.404.603 1.404 1.243 0 .828-.76 1.468-2.77 1.468s-2.92-.565-3.11-1.732z" fill="#FEFEFE"/><path fill-rule="evenodd" clip-rule="evenodd" d="M90.833 6.024c0 3.388 2.125 5.948 6.07 5.948 3.301 0 5.349-1.544 5.956-3.915h-2.693c-.38 1.167-1.404 1.844-3.187 1.844-1.973 0-3.263-1.167-3.49-3.2h9.408C102.935 2.598 101.152 0 96.903 0c-3.794 0-6.07 2.447-6.07 6.024zm9.333-1.167h-6.64c.342-1.845 1.556-2.824 3.377-2.824 2.087 0 3.073 1.13 3.263 2.824z" fill="#FEFEFE"/><path d="M106.842.188h-2.618v11.558h2.618v-7.83c.683-1.318 1.631-1.92 3.149-1.92 1.897 0 2.845.865 2.845 2.71v7.04h2.618V4.367c0-2.748-1.518-4.367-4.249-4.367-2.39 0-3.718 1.242-4.363 3.275V.188zM119.283 8.207h-2.732c.304 2.334 2.049 3.727 5.804 3.727 3.756 0 5.35-1.543 5.35-3.614 0-1.77-.835-2.974-3.377-3.238l-3.49-.414c-1.024-.113-1.404-.527-1.404-1.204 0-.829.645-1.431 2.618-1.431 2.011 0 2.693.678 2.845 1.656h2.732C127.211 1.506 125.808 0 122.09 0s-5.235 1.581-5.235 3.652c0 1.807.948 2.899 3.528 3.2l3.376.376c1.1.15 1.404.603 1.404 1.243 0 .828-.759 1.468-2.77 1.468-2.01-.038-2.921-.565-3.11-1.732zM135.331 14.607l4.894-14.42h-2.731l-3.415 10.128-3.49-10.127h-2.883l3.832 10.315h2.541l-.645 1.958h-4.438v2.146h6.335zM142.92 8.207h-2.769c.304 2.334 2.049 3.727 5.804 3.727 3.756 0 5.349-1.543 5.349-3.614 0-1.77-.834-2.974-3.376-3.238l-3.49-.414c-1.024-.113-1.404-.527-1.404-1.204 0-.829.645-1.431 2.618-1.431 1.973 0 2.693.678 2.845 1.656h2.732C150.849 1.506 149.446 0 145.728 0c-3.718 0-5.236 1.581-5.236 3.652 0 1.807.949 2.899 3.529 3.2l3.376.376c1.1.15 1.404.603 1.404 1.243 0 .828-.759 1.468-2.77 1.468-2.01-.038-2.921-.565-3.111-1.732z" fill="#FEFEFE"/><path fill-rule="evenodd" clip-rule="evenodd" d="M33.319 16.113V.188h-16.01C8.47.188 1.3 7.303 1.3 16.113 1.3 24.885 8.47 32 17.31 32c8.839 0 16.009-7.115 16.009-15.887zM13.667 8.132L21.672.188v11.558H33.32l-8.005 7.98H13.668V8.133z" fill="#FEFEFE"/></svg>