<svg width="62" height="18" fill="none" xmlns="http://www.w3.org/2000/svg"><g clip-path="url(#a)"><path d="M9.775 0l1.079.15c5.455 1.05 8.765 6.76 6.769 12.031l-.209.472c.587-1.89.513-3.87-1.21-5.105-1.2-.86-2.616-.96-3.989-1.382-1.538-.474-3.07-1.18-4.159-2.394.048 1.398.807 2.782.328 4.183-.08.237-.383.708-.317.927.111.368.76.195 1.005.427.245.233-.034.468.061.631.073.125.398.19.535.205.088.01.391-.052.336.12-.026.082-.151.138-.176.256-.1.481.47.268.664.496.226.266.003.659.369.968.364.308.794.14 1.194 0 1.122-.392 3.361-1.612 4.28-.367.542.732.19 1.945-.198 2.682-1.057 2.012-3.539 3.323-5.733 3.625l-.63.075H8.439l-.772-.1a9.21 9.21 0 01-5.316-2.872c-.405-.444-1.14-1.36-.702-1.968.137-.19.485-.336.715-.336h3.043l-.181-.455H.635c-.058-.217-.151-.422-.211-.638C.18 10.758.15 9.83.718 9.074c.952-1.268 2.794-.83 4.163-.91L2.83 10.183l.963.941C5.1 9.893 6.37 8.621 7.676 7.384c.153-.581.053-1.18-.097-1.75-.041-.01-.048.017-.072.036-.514.396-.971 1.097-1.567 1.37-.496.226-1.242.25-1.786.266-1.315.039-2.637-.031-3.952-.001v-.143a9.448 9.448 0 011.46-3.326C3.196 1.663 5.708.203 8.382.026L8.438 0h1.337zM49.857 12.82c-1.096 1.595-3.471 1.445-4.69.072-1.402-1.578-1.313-4.698.382-6.04 1.135-.899 2.889-.99 3.975.034l.333.419v-.979H51.6l.001 7.295c-.116 2.568-1.744 3.404-4.143 3.257-1.434-.088-2.693-.876-2.877-2.387h1.72c.122.652.581.926 1.205 1.002.943.115 2.004-.101 2.278-1.135.02-.077.073-.291.073-.357V12.82zm-2.13-5.27c-2.34.239-2.285 4.842.018 5.03 1.946.16 2.443-1.894 2.096-3.432-.237-1.048-1.008-1.71-2.113-1.597zM26.009 10.146v3.939H24.17V3.629l4-.001c2.49.093 4.063.942 3.878 3.689-.21 3.138-3.75 2.84-6.04 2.829zm0-5.013v3.485c.742-.03 1.516.04 2.255 0 1.196-.066 1.944-.525 1.874-1.826-.046-.868-.46-1.395-1.312-1.576-.892-.19-1.905-.03-2.817-.083zM60.505 10.719H54.75c.029.896.597 1.76 1.475 2.022.897.267 2.14-.045 2.488-.996h1.695c-.354 1.44-1.703 2.436-3.163 2.53-2.74.178-4.462-1.897-4.261-4.547.187-2.468 2.415-4.096 4.832-3.448 1.963.527 2.835 2.534 2.688 4.439zm-1.767-1.29c-.03-1.366-1.298-2.21-2.596-1.82a1.97 1.97 0 00-1.39 1.82h3.986zM37.993 14.085l-.144-1.003-.24.322c-1.327 1.46-4.803 1.125-5.148-1.08-.28-1.79 1.383-2.428 2.806-2.744.777-.172 1.575-.264 2.368-.341.064-.916-.281-1.69-1.257-1.835-.965-.145-1.865.326-1.87 1.38h-1.684c-.014 0-.03-.03-.03-.053-.003-.07.034-.253.05-.333.44-2.232 3.431-2.875 5.197-1.87 1.544.88 1.317 2.553 1.311 4.058-.004 1.17-.01 2.353.24 3.499h-1.6zm-.31-3.629c-.528.05-1.06.1-1.58.199-.678.127-1.836.368-1.836 1.245 0 1.328 2.1 1.29 2.853.632.283-.246.562-.804.562-1.18v-.896zM42.815 6.326h-1.719v7.759h1.719V6.326zM42.815 3.629h-1.719V5.37h1.719V3.63z" fill="#fff"/></g><defs><clipPath id="a"><path fill="#fff" d="M0 0H61.313V18H0z"/></clipPath></defs></svg>