<svg width="183" height="32" fill="none" xmlns="http://www.w3.org/2000/svg"><g clip-path="url(#a)" fill="#FEFEFE"><path d="M61.146 8.686V25.39h2.912V13.883h.15l4.628 11.433h2.165l4.63-11.433h.149V25.39h2.912V8.686h-3.733L70.03 20.788h-.224L64.805 8.686h-3.659zM85.56 25.613c1.942 0 3.136-.89 3.733-2.004h.075v1.707h2.837v-8.315c0-3.341-2.688-4.306-5.151-4.306-2.614 0-4.704 1.188-5.376 3.49l2.763.37c.298-.89 1.12-1.559 2.613-1.559 1.344 0 2.165.669 2.165 1.93v.075c0 .817-.896.89-3.136 1.114-2.464.297-4.778.965-4.778 3.786 0 2.45 1.866 3.712 4.255 3.712zm.747-2.153c-1.27 0-2.09-.594-2.09-1.633 0-1.114.97-1.634 2.314-1.782.747-.074 2.314-.297 2.688-.594v1.485c0 1.336-1.12 2.524-2.912 2.524zm15.156-10.617H99v-2.97h-2.987v2.97h-1.792v2.302h1.792v6.979c0 2.376 1.717 3.49 3.957 3.415.821 0 1.419-.223 1.717-.297l-.522-2.301c-.15.074-.523.148-.896.148-.747 0-1.344-.297-1.344-1.485v-6.46h2.464v-2.3h.074zm7.914 12.77c2.912 0 4.928-1.41 5.451-3.638l-2.763-.297c-.373 1.04-1.418 1.634-2.688 1.634-1.941 0-3.21-1.262-3.21-3.416h8.81v-.89c0-4.38-2.688-6.311-5.749-6.311-3.584 0-5.973 2.598-5.973 6.533 0 3.861 2.315 6.385 6.122 6.385zm-3.135-7.647c.074-1.633 1.269-2.97 3.061-2.97 1.717 0 2.837 1.263 2.837 2.97h-5.898zm14.26 7.425v-7.35c0-1.56 1.195-2.748 2.837-2.748.523 0 1.12.075 1.344.149v-2.747c-.299-.075-.746-.075-1.045-.075-1.419 0-2.613.817-3.136 2.302h-.149v-2.079h-2.912v12.548h3.061zm6.122 0h2.987V12.843h-2.987v12.548zm1.494-14.33c.97 0 1.717-.742 1.717-1.633 0-.89-.747-1.633-1.717-1.633-.971 0-1.718.742-1.718 1.633 0 .965.822 1.633 1.718 1.633zm8.212 14.552c1.942 0 3.136-.89 3.733-2.004h.075v1.707h2.837v-8.315c0-3.341-2.688-4.306-5.151-4.306-2.614 0-4.704 1.188-5.301 3.49l2.762.37c.299-.89 1.12-1.559 2.613-1.559 1.344 0 2.165.669 2.165 1.93v.075c0 .817-.896.89-3.135 1.114-2.464.297-4.779.965-4.779 3.786-.074 2.45 1.718 3.712 4.181 3.712zm.747-2.153c-1.269 0-2.091-.594-2.091-1.633 0-1.114.971-1.634 2.315-1.782.747-.074 2.314-.297 2.688-.594v1.485c0 1.336-1.12 2.524-2.912 2.524zm11.797-14.774h-2.987V25.39h2.987V8.686zm3.061 16.705h2.986V12.843h-2.986v12.548zm1.493-14.33c.97 0 1.717-.742 1.717-1.633 0-.89-.747-1.633-1.717-1.633-.971 0-1.717.742-1.717 1.633 0 .965.821 1.633 1.717 1.633zm14.708 14.33v-2.45h-6.421v-.075l6.197-7.944v-2.005h-9.93v2.45h6.272v.075l-6.496 8.093v1.856h10.378zm7.989.222c2.912 0 4.928-1.41 5.45-3.638l-2.762-.297c-.373 1.04-1.419 1.634-2.688 1.634-1.941 0-3.21-1.262-3.21-3.416h8.81v-.89c0-4.38-2.688-6.311-5.749-6.311-3.584 0-5.973 2.598-5.973 6.533 0 3.861 2.389 6.385 6.122 6.385zm-3.136-7.647c.075-1.633 1.269-2.97 3.061-2.97 1.718 0 2.838 1.263 2.838 2.97h-5.899zM38.897 0v32H31.43V2.672L33.745.297c.075-.074.224-.223.373-.223.15-.074.299-.074.448-.074h4.33z"/><path fill-rule="evenodd" clip-rule="evenodd" d="M27.475 21.607c-.523-.669-1.046-1.337-1.568-1.857-.97-.965-1.867-1.93-2.837-2.82l-1.419-1.412v-3.266c0-.149 0-.297.075-.446.074-.074.074-.148.149-.223l7.242-6.904V23.537c-.523-.594-1.045-1.262-1.642-1.93z"/><path d="M.595 8.537v10.394L13.81 31.998h10.452L.595 8.538zM.595 32H10.3L.595 22.422V32zM27.771 32H38.15L6.866.297C6.791.223 6.642.148 6.493.074 6.343 0 6.269 0 6.12 0H.595v4.603L27.77 32z"/></g><defs><clipPath id="a"><path fill="#fff" d="M0 0H182.857V32H0z"/></clipPath></defs></svg>