<svg width="156" height="32" fill="none" xmlns="http://www.w3.org/2000/svg"><g clip-path="url(#a)"><path d="M13.256 23.855a1.222 1.222 0 00-.71-.173H6.604c-.662 0-1.292-.157-1.812-.55a2.354 2.354 0 01-.536-.867c-.11-.33-.126-.66-.126-1.023V5.296c0-.315-.048-.504-.174-.599-.173-.125-.41-.125-.63-.125H.788c-.236 0-.426 0-.599.141a.577.577 0 00-.158.268A1.768 1.768 0 000 5.296v15.946c0 .913.095 1.543.284 2.298.173.709.488 1.386.945 1.952a4.75 4.75 0 001.829 1.37c.93.378 1.875.52 2.916.52h6.068c.41 0 .788 0 1.12-.08.236-.062.362-.11.52-.251a.457.457 0 00.141-.236c.016-.079.016-.142.016-.236 0 0-.22-1.764-.331-2.141-.126-.347-.095-.441-.252-.583zm27.898-4.864A7.178 7.178 0 0039.436 18a42.376 42.376 0 00-1.97-.755 26.548 26.548 0 01-1.498-.567 6.041 6.041 0 01-.993-.535 1.722 1.722 0 01-.551-.567 1.565 1.565 0 01-.19-.74c0-.204.048-.41.142-.598a1.63 1.63 0 01.379-.488 2.505 2.505 0 011.686-.52c.662-.015 1.34.032 2.002.127.74.125 1.45.314 2.16.55a.831.831 0 00.393.063c.095-.015.174-.11.237-.283l.693-1.794a.836.836 0 000-.441c-.031-.063-.063-.142-.11-.19a.567.567 0 00-.189-.125 13.03 13.03 0 00-2.553-.693 14.79 14.79 0 00-2.648-.189c-.867 0-1.718.142-2.538.41a5.367 5.367 0 00-1.828 1.023c-.473.41-.852.929-1.104 1.511a4.596 4.596 0 00-.346 1.905c0 .566.125 1.133.362 1.653.236.488.567.928.977 1.275.489.41 1.025.755 1.608 1.023.74.346 1.497.645 2.254.897.883.284 1.75.662 2.569 1.118.252.142.473.346.63.582.158.252.237.536.237.835a1.59 1.59 0 01-.158.755c-.11.236-.268.441-.488.599a3.26 3.26 0 01-1.97.55c-.82 0-1.64-.078-2.46-.251a10.903 10.903 0 01-2.521-.787.696.696 0 00-.252-.095.684.684 0 00-.253.016.993.993 0 00-.315.362l-.725 1.763a.331.331 0 00-.079.205.505.505 0 00.016.22.378.378 0 00.11.189c.048.047.11.094.19.126a8.35 8.35 0 001.45.614c.535.173 1.087.299 1.639.393.567.095 1.135.158 1.702.205.567.047 1.088.047 1.592.047.82 0 1.67-.126 2.475-.346a5.631 5.631 0 001.954-.945c.552-.409.977-.944 1.277-1.574a5.016 5.016 0 00.441-2.204 3.922 3.922 0 00-.489-1.967 4.839 4.839 0 00-1.229-1.37zm-18.93-9.036c-.993 0-1.97.079-2.947.205-.993.126-1.955.362-2.885.708-.268.11-.362.33-.283.661l.44 1.81c.048.19.111.316.222.347a.788.788 0 00.504-.031 13.017 13.017 0 012.033-.441 14.379 14.379 0 012.317-.19 5.268 5.268 0 011.64.206c.378.11.709.314.992.582.237.252.41.551.489.897.079.362.126.74.126 1.118v.55h-3.515a9.467 9.467 0 00-3.184.473 5.763 5.763 0 00-2.112 1.26 4.637 4.637 0 00-1.182 1.81 6.64 6.64 0 00-.362 2.14c0 .693.094 1.386.315 2.047.22.646.599 1.244 1.119 1.684.63.536 1.371.93 2.16 1.15 1.118.315 2.269.456 3.435.425.505 0 1.025-.016 1.592-.047.552-.032 1.12-.095 1.687-.174a15.464 15.464 0 001.655-.346 10.627 10.627 0 001.497-.535.997.997 0 00.457-.425c.11-.19.158-.41.142-.614v-9.54a5.724 5.724 0 00-.315-2.298 5.645 5.645 0 00-1.214-1.968c-1.04-.976-2.648-1.464-4.823-1.464zm2.617 13.932c-.284.11-.584.189-.899.252-.33.063-.63.11-.93.157-.268.047-.551.063-.835.079a9.866 9.866 0 01-.615.015 4.753 4.753 0 01-2.411-.535 2.016 2.016 0 01-.725-.818 2.12 2.12 0 01-.19-1.086 2.638 2.638 0 01.363-1.496c.22-.346.536-.63.914-.834a3.033 3.033 0 011.166-.347 9.232 9.232 0 011.151-.063h3.01v4.676zm29.994 2.424l-.346-2.03a.43.43 0 00-.127-.3c-.063-.047-.204-.063-.41-.016-.141.016-.33.048-.55.08-.222.03-.442.062-.663.078-.22.016-.441.031-.646.047-.205.016-.379.016-.505.016-.504.047-1.024-.063-1.45-.378-.204-.157-.3-.378-.394-.63-.078-.236-.078-.488-.078-.771v-8.563h3.152c.236 0 .378-.048.425-.127a.736.736 0 00.08-.409v-1.731a.716.716 0 00-.08-.362c-.047-.095-.189-.142-.425-.142h-3.152V7.027a.466.466 0 00-.032-.252.646.646 0 00-.126-.204c-.063-.032-.126-.063-.205-.063a.454.454 0 00-.205.016l-2.254.63a1.798 1.798 0 00-.489.251.721.721 0 00-.236.252.73.73 0 00-.079.33v3.086h-1.497c-.252 0-.347.063-.41.142-.031.047-.189.409-.22.456 0 0-.568 1.527-.615 1.684a.385.385 0 000 .19c.015.062.047.11.094.157.048.047.11.094.19.126a.537.537 0 00.22.031h2.223l.015 9.036c0 1.244.19 2.409 1.056 3.4.678.772 1.923 1.118 3.641 1.118.394 0 .946-.016 1.671-.063a8.78 8.78 0 002.128-.41c.19-.078.284-.173.3-.267a.929.929 0 000-.362zM154.67 9.059c-.126 0-.267.031-.378.078a.944.944 0 00-.331.22.94.94 0 00-.22.331 1.08 1.08 0 00-.079.394V26.39c0 .126.031.268.079.394a.94.94 0 00.22.33.945.945 0 00.331.22c.126.048.252.08.378.08.127 0 .268-.032.379-.08a.945.945 0 00.331-.22.94.94 0 00.22-.33 1.08 1.08 0 00.079-.394V10.066c0-.268-.11-.52-.299-.708a1.005 1.005 0 00-.71-.3zm-21.436 5.84a3.48 3.48 0 00-1.923.567 3.49 3.49 0 00-1.276 1.542 3.468 3.468 0 00-.205 2c.126.676.457 1.29.93 1.778a3.422 3.422 0 003.751.772 3.494 3.494 0 001.545-1.276 3.484 3.484 0 00.583-1.92c0-.913-.363-1.795-.993-2.44a3.315 3.315 0 00-2.412-1.023zm11.459 0c-.678 0-1.355.189-1.923.567a3.49 3.49 0 00-1.276 1.542 3.468 3.468 0 00-.205 2c.126.676.457 1.29.93 1.778a3.422 3.422 0 003.751.771 3.5 3.5 0 001.545-1.274 3.484 3.484 0 00.583-1.921c0-.913-.363-1.795-.993-2.44a3.317 3.317 0 00-2.412-1.023zm-22.917 0c-.678 0-1.356.189-1.923.567a3.486 3.486 0 00-1.277 1.542 3.468 3.468 0 00-.205 2c.126.676.457 1.29.93 1.778a3.485 3.485 0 001.765.96 3.488 3.488 0 002.002-.188 3.5 3.5 0 001.545-1.276 3.484 3.484 0 00.583-1.92 3.44 3.44 0 00-.993-2.44 3.376 3.376 0 00-2.427-1.023zM70.772 16.598a6.622 6.622 0 001.119-2.44c.173-.708.268-1.432.283-2.172.016-.992-.173-2.22-.551-3.148a6.503 6.503 0 00-1.545-2.299 6.574 6.574 0 00-2.333-1.464c-.961-.346-1.938-.503-3.026-.503h-6.305c-.205 0-.536 0-.756.063-.237.062-.379.11-.568.362-.126.173-.205.33-.236.55-.063.347-.063.646-.079.945v20.213c0 .063.016.251.047.362.032.11.063.157.174.236.157.11.33.11.536.11h2.08c.284 0 .646 0 .82-.11.142-.095.142-.284.142-.583v-7.304h3.83c1.387 0 2.758-.22 4.003-.819a7.223 7.223 0 002.365-1.999zm-3.342-1.684a4.06 4.06 0 01-1.419.85c-.52.173-.992.205-1.639.205h-4.019V8.255h3.956a4.641 4.641 0 012.018.362c.473.205.898.52 1.245.929.3.362.504.771.63 1.228.11.41.174 1.055.19 1.48a3.798 3.798 0 01-.962 2.66zm10.324-4.959a13.723 13.723 0 00-3.657.646c-.268.11-.362.33-.283.66l.44 1.811c.048.189.111.315.222.346a.788.788 0 00.504-.031c.71-.22 1.434-.33 2.175-.362a5.268 5.268 0 011.64.204c.378.11.709.315.992.583.237.252.41.551.489.897.079.362.126.74.126 1.118v.55h-3.515a9.467 9.467 0 00-3.184.473 5.763 5.763 0 00-2.112 1.26 4.636 4.636 0 00-1.182 1.81 6.64 6.64 0 00-.363 2.14c0 .693.095 1.386.316 2.047.22.646.599 1.228 1.119 1.684.63.536 1.371.93 2.16 1.15 1.118.315 2.269.425 3.435.425.52 0 1.025-.016 1.592-.047.552-.032 1.12-.095 1.687-.174a15.464 15.464 0 001.655-.346 10.627 10.627 0 001.497-.535.997.997 0 00.457-.425c.11-.19.158-.41.142-.614v-9.54a5.724 5.724 0 00-.315-2.298 5.645 5.645 0 00-1.214-1.968c-1.04-.976-2.648-1.464-4.823-1.464zm2.617 13.932c-.284.11-.584.189-.899.252-.33.063-.63.11-.93.157a7.512 7.512 0 01-.835.079c-.268.015-.473.015-.615.015a4.753 4.753 0 01-2.412-.535 2.016 2.016 0 01-.725-.818 2.12 2.12 0 01-.189-1.086 2.638 2.638 0 01.363-1.496c.22-.346.536-.63.914-.834a3.033 3.033 0 011.166-.347 9.232 9.232 0 011.151-.063h3.01v4.676zM96.7 18.99A7.181 7.181 0 0094.982 18a42.329 42.329 0 00-1.97-.755 26.525 26.525 0 01-1.498-.567 6.05 6.05 0 01-.993-.535 1.723 1.723 0 01-.552-.567 1.566 1.566 0 01-.189-.74c0-.204.048-.41.142-.598.095-.189.22-.362.379-.488a2.53 2.53 0 011.686-.52c.662-.015 1.34.032 2.002.127.74.125 1.45.314 2.16.55a.831.831 0 00.393.063c.095-.015.174-.11.237-.283l.693-1.794a.837.837 0 000-.441c-.031-.063-.063-.142-.11-.19a.568.568 0 00-.19-.125 13.03 13.03 0 00-2.553-.693 14.79 14.79 0 00-2.648-.189c-.867 0-1.718.142-2.537.41a5.366 5.366 0 00-1.829 1.023c-.473.41-.85.929-1.103 1.511a4.595 4.595 0 00-.347 1.905c0 .566.126 1.133.363 1.653.236.488.567.928.977 1.275.489.41 1.024.755 1.608 1.023.74.346 1.497.645 2.254.897.882.284 1.75.662 2.569 1.118.252.142.473.346.63.598.158.252.237.535.237.834.015.252-.048.52-.158.756s-.268.44-.489.598a3.26 3.26 0 01-1.97.551c-.82 0-1.655-.078-2.459-.252a10.906 10.906 0 01-2.522-.787c-.078-.031-.157-.078-.252-.094a.683.683 0 00-.252.016.792.792 0 00-.315.362l-.725 1.747a.528.528 0 00-.063.236.518.518 0 000 .22c.015.08.047.11.094.174.047.047.126.11.205.141.489.236.946.457 1.45.614.536.173 1.088.3 1.64.394a20.87 20.87 0 001.702.204c.567.048 1.103.048 1.608.048.82 0 1.654-.126 2.443-.347a5.63 5.63 0 001.954-.944c.552-.41.993-.945 1.277-1.574a5.062 5.062 0 00.441-2.204 3.882 3.882 0 00-.489-1.968 4.73 4.73 0 00-1.213-1.4zm14.091 0a7.17 7.17 0 00-1.718-.992 42.235 42.235 0 00-1.97-.755 26.386 26.386 0 01-1.498-.567 6.025 6.025 0 01-.993-.535 1.726 1.726 0 01-.551-.567 1.556 1.556 0 01-.19-.74c0-.204.048-.41.142-.598.095-.189.221-.362.379-.488a2.528 2.528 0 011.686-.52c.662-.015 1.34.032 2.002.127a13.97 13.97 0 012.159.55.83.83 0 00.394.063c.095-.015.158-.125.237-.283l.693-1.794c.032-.142.047-.3.016-.441-.032-.063-.063-.142-.11-.19a.577.577 0 00-.19-.125 13.012 13.012 0 00-2.553-.693 14.894 14.894 0 00-2.648-.189 8.16 8.16 0 00-2.538.41 5.373 5.373 0 00-1.828 1.023 4.21 4.21 0 00-1.103 1.511 4.596 4.596 0 00-.347 1.905c0 .566.126 1.133.362 1.653.237.488.568.928.978 1.275.488.41 1.024.755 1.607 1.023.741.346 1.498.645 2.254.897.883.284 1.75.662 2.57 1.118.252.142.472.346.63.598.158.252.236.535.236.834.016.252-.047.52-.157.756a1.5 1.5 0 01-.489.598 3.26 3.26 0 01-1.97.551c-.82 0-1.655-.078-2.459-.252a11.724 11.724 0 01-2.522-.787c-.079-.031-.157-.078-.252-.094a.682.682 0 00-.252.016.786.786 0 00-.315.362l-.741 1.747a.482.482 0 00-.063.236.505.505 0 00.016.22c.015.08.047.11.11.174a.65.65 0 00.189.141c.473.252.946.457 1.45.614.536.173 1.088.3 1.639.394.568.094 1.135.157 1.703.204.567.048 1.103.048 1.607.048.851 0 1.655-.126 2.443-.347a5.624 5.624 0 001.955-.944c.552-.41.977-.945 1.277-1.574a5.061 5.061 0 00.441-2.204 3.879 3.879 0 00-.489-1.968 5.028 5.028 0 00-1.229-1.4z" fill="#FEFEFE"/></g><defs><clipPath id="a"><path fill="#fff" d="M0 0H155.429V32H0z"/></clipPath></defs></svg>