<svg width="76" height="18" fill="none" xmlns="http://www.w3.org/2000/svg"><g clip-path="url(#a)"><path d="M26.847 3.719c-1.08-.98-2.524-1.469-4.332-1.469-2.235 0-3.855.377-4.997 1.456h-.189l-.125-1.18h-2.16V16.05h2.386V8.792c0-1.482.427-2.587 1.268-3.315.854-.728 1.934-1.093 3.252-1.093 1.268 0 2.26.34 3 1.018.742.678 1.106 1.72 1.106 3.126v7.52h2.41V7.964c.013-1.846-.527-3.252-1.62-4.244zm21.947 8.362h-.175V2.514h-2.411v13.535h2.26l11.2-13.523H56.83l-8.036 9.555zm-41.635.025c-.59 0-1.142.025-1.644.076l4.796-5.7h.176v6.327c-.942-.464-2.047-.703-3.328-.703zM-.562 16.05h2.837c.075-.088.301-.364.414-.502.126-.151.264-.302.427-.44.904-.778 2.047-1.167 3.453-1.167 1.344 0 2.41.364 3.19 1.08.3.276.552.627.728 1.016H12.897V2.526h-2.26L-.563 16.05zm42.2-6.002c0 1.406-.365 2.448-1.105 3.127-.741.678-1.746 1.017-3.001 1.017h-.377c-1.268 0-2.26-.34-3-1.018-.742-.678-1.106-1.72-1.106-3.126v-7.52h-2.41v8.085c0 1.846.54 3.252 1.62 4.232 1.08.979 2.523 1.443 4.331 1.469h1.52c1.807-.026 3.251-.49 4.331-1.47 1.08-.979 1.62-2.398 1.62-4.23V2.525h-2.41v7.521m30.71-7.52v7.52c0 1.406-.364 2.448-1.104 3.127-.741.678-1.746 1.017-3.001 1.017h-.377c-1.268 0-2.26-.34-3-1.018-.742-.678-1.106-1.72-1.106-3.126v-7.52h-2.41v8.085c0 1.846.54 3.252 1.62 4.232 1.08.979 2.523 1.443 4.331 1.469h1.52c1.807-.026 3.251-.49 4.331-1.47 1.08-.979 1.62-2.398 1.62-4.23V2.525h-2.423z" fill="#fff"/></g><defs><clipPath id="a"><path fill="#fff" d="M0 0H75.375V18H0z"/></clipPath></defs></svg>