<svg width="96" height="18" fill="none" xmlns="http://www.w3.org/2000/svg"><g clip-path="url(#a)" fill="#fff"><path d="M11.214 5.063a5.21 5.21 0 00-1.696-1.171c-.666-.283-1.413-.424-2.261-.424-.889 0-1.676.161-2.383.484a5.294 5.294 0 00-1.777 1.313 6 6 0 00-1.13 1.898 6.617 6.617 0 00-.404 2.282c0 .787.121 1.554.404 2.281a5.494 5.494 0 001.13 1.878c.485.545 1.09.99 1.777 1.292.707.323 1.494.485 2.383.485.787 0 1.474-.081 2.14-.242.646-.182 1.171-.384 1.575-.626v-4.16h-3.21V9.121h4.583v6.2a9.171 9.171 0 01-2.423 1.009 10.75 10.75 0 01-2.685.323 7.473 7.473 0 01-2.868-.545 6.797 6.797 0 01-2.261-1.495C1.462 13.967.978 13.2.614 12.313a7.786 7.786 0 01-.525-2.867c0-1.05.182-2 .545-2.888a7.101 7.101 0 011.494-2.282A7.01 7.01 0 014.39 2.781c.868-.363 1.817-.545 2.847-.545 1.09 0 2.039.162 2.867.485a5.937 5.937 0 012.08 1.373l-.97.969zM17.534 15.038h5.371v1.231h-6.764V2.58h1.393v12.459zM27.307 16.29h-1.534L31.689 2.6h1.352l5.876 13.69h-1.534l-1.515-3.595h-7.087l-1.474 3.595zm2.02-4.887h6.036l-3.028-7.269-3.009 7.27zM46.469 16.633c-1.03 0-1.878-.182-2.544-.525-.667-.364-1.192-.808-1.575-1.333a5.251 5.251 0 01-.808-1.777 8.275 8.275 0 01-.222-1.817V2.579h1.393v8.44c0 .566.06 1.09.182 1.616.121.525.343.99.626 1.393.282.404.686.727 1.15.99.485.242 1.07.383 1.757.383.687 0 1.272-.121 1.757-.384a3.066 3.066 0 001.15-.989c.284-.404.506-.868.627-1.393s.182-1.07.182-1.615V2.58h1.393v8.58c0 .566-.081 1.172-.222 1.818a5.045 5.045 0 01-.808 1.777c-.384.545-.909.99-1.575 1.333-.606.363-1.454.545-2.463.545zM57.372 8.738l6.542-6.159h1.979l-6.906 6.2 7.29 7.49h-2.04L57.372 8.98h-.02v7.29h-1.393V2.58h1.393l.02 6.158zM82.167 9.445c0 1.05-.181 1.998-.545 2.887a7.101 7.101 0 01-1.494 2.281 7.009 7.009 0 01-2.261 1.495c-.869.363-1.818.545-2.848.545a7.371 7.371 0 01-2.847-.545 7.008 7.008 0 01-2.26-1.495 6.886 6.886 0 01-1.495-2.281c-.364-.889-.545-1.838-.545-2.887 0-1.05.181-2 .545-2.888a7.1 7.1 0 011.494-2.282 7.01 7.01 0 012.261-1.494c.869-.363 1.818-.545 2.847-.545 1.03 0 1.96.182 2.847.545a7.01 7.01 0 012.262 1.494 6.888 6.888 0 011.494 2.282c.384.868.545 1.838.545 2.888zm-1.474 0c0-.788-.12-1.555-.383-2.282a5.458 5.458 0 00-1.131-1.898 5.503 5.503 0 00-1.777-1.313c-.707-.323-1.494-.484-2.383-.484-.888 0-1.675.161-2.382.484a5.293 5.293 0 00-1.777 1.313 6 6 0 00-1.13 1.898 6.606 6.606 0 00-.384 2.282c0 .787.12 1.554.383 2.281.263.727.626 1.353 1.131 1.878.485.545 1.09.99 1.777 1.292.707.323 1.494.485 2.382.485.889 0 1.676-.162 2.383-.485a5.243 5.243 0 001.777-1.292 5.905 5.905 0 001.13-1.878 6.604 6.604 0 00.384-2.281zM93.111 4.78a3.317 3.317 0 00-1.13-.99c-.465-.241-1.03-.383-1.676-.383-.324 0-.687.06-1.03.162a2.82 2.82 0 00-.95.484 2.404 2.404 0 00-.686.808c-.181.323-.262.707-.262 1.13 0 .425.08.808.242 1.091.182.283.384.525.666.727.283.202.586.363.95.485.363.12.726.262 1.11.383.484.162.949.323 1.433.505.485.182.93.424 1.293.707.383.282.706.666.949 1.11.242.444.363 1.01.363 1.696 0 .687-.121 1.272-.383 1.777a3.819 3.819 0 01-1.03 1.232 4.37 4.37 0 01-1.434.727 5.476 5.476 0 01-1.615.222 5.862 5.862 0 01-2.423-.505 6.01 6.01 0 01-1.05-.626 4.423 4.423 0 01-.848-.888l1.191-.889c.303.485.707.889 1.252 1.232.525.323 1.171.485 1.878.485.343 0 .707-.061 1.07-.162.363-.121.686-.283.99-.505a3.2 3.2 0 00.726-.828c.182-.323.283-.706.283-1.15 0-.485-.101-.889-.283-1.192a2.146 2.146 0 00-.747-.787c-.303-.222-.666-.384-1.07-.525-.404-.142-.828-.283-1.252-.424a17.67 17.67 0 01-1.333-.485 4.89 4.89 0 01-1.17-.707 3.01 3.01 0 01-.828-1.09c-.222-.424-.323-.949-.323-1.575 0-.666.12-1.232.403-1.696a3.67 3.67 0 011.03-1.191 4.836 4.836 0 011.413-.687 5.874 5.874 0 011.535-.222c.929 0 1.737.162 2.383.485.666.323 1.15.727 1.474 1.17l-1.11.89z"/><path d="M77.24 9.162c.061.444-.02.929-.282 1.332-.06.101-.121.202-.202.303-.08.101-.162.182-.242.263-.081.08-.182.161-.283.222l-.08.04c-.02.02-.061.02-.081.04l-.081.041c-.02.02-.06.02-.081.04-.121.061-.222.101-.343.122l-.081.02c-.02.02-.06.02-.08.02l-.082.04c-.02 0-.06.02-.08.02-.06 0-.121.02-.182.02h-.182c-.121 0-.242-.02-.383-.04-.122-.02-.243-.06-.364-.08-.02-.02-.06-.02-.08-.02l-.081-.04c-.02-.021-.061-.021-.081-.041l-.081-.04a1.748 1.748 0 01-.323-.203c-.101-.08-.202-.161-.283-.242a1.628 1.628 0 01-.242-.283 1.738 1.738 0 01-.202-.323l-.04-.08c-.02-.02-.02-.061-.04-.081l-.041-.081c-.02-.02-.02-.06-.02-.08l-.02-.081c-.02-.02-.02-.061-.02-.081l-.041-.081c0-.02-.02-.06-.02-.08-.02-.122-.02-.243-.04-.384 0-.122 0-.243.02-.384 0-.02.02-.06.02-.08l.04-.082c0-.02.02-.06.02-.08l.02-.081c.02-.121.081-.222.122-.343.06-.122.12-.222.181-.323.081-.101.142-.202.222-.283.081-.08.182-.182.263-.242.101-.081.182-.142.303-.202a2.418 2.418 0 011.332-.283c-.12.02-.222.04-.323.08-.02 0-.06.02-.08.02l-.081.041c-.02.02-.06.02-.08.02l-.082.02c-.1.041-.202.081-.282.142-.081.06-.182.121-.263.182-.323.262-.585.606-.707.99l-.02.08c-.02.02-.02.04-.02.08l-.04.081c0 .02-.02.04-.02.081-.02.101-.02.202-.04.303v.283c0 .02 0 .04.02.08v.081c0 .02 0 .04.02.081l.02.08c.08.384.282.728.565 1.01.283.283.626.485 1.01.566l.08.02c.02 0 .04.02.081.02h.081c.02 0 .04 0 .08.02.102 0 .203.02.304 0 .1 0 .201-.02.302-.04.102-.02.202-.04.283-.08.384-.122.727-.384.99-.707.08-.081.12-.182.181-.263.06-.08.101-.182.142-.283l.02-.08c0-.02.02-.02.02-.04l.06-.122c.02-.02.02-.06.02-.08-.04-.243-.04-.344-.02-.465z"/><path d="M75.14 5.285c.788-.1 1.636.08 2.363.505.182.1.364.222.525.363.08.081.162.121.242.222l.223.222c.14.162.282.324.383.505l.08.121c.021.02.021.04.041.081l.121.242.02.081c.02.02.02.04.02.081.082.202.162.404.223.606l.04.161c.02.02.02.06.02.081l.061.242c.02.06.02.101.02.162l.02.161v.122c.02.12 0 .222 0 .323-.02.222-.02.424-.08.646 0 .02-.02.06-.02.08l-.04.162c0 .02-.021.06-.021.08l-.02.082c-.02.02-.02.06-.02.08l-.061.162c-.02.02-.02.06-.02.08l-.081.324c-.02.02-.02.06-.02.08l-.081.142c-.02.02-.02.04-.04.08l-.04.081c-.02.02-.02.04-.041.081l-.08.162-.021.02-.02.02-.081.121c-.121.182-.283.344-.424.505a3.3 3.3 0 01-.505.424 5.259 5.259 0 01-.565.343l-.142.081c-.02.02-.04.02-.08.02l-.323.081c-.02.02-.061.02-.081.02l-.162.06c-.02.02-.06.02-.08.02l-.081.021c-.02 0-.06.02-.081.02l-.161.04c-.02 0-.061.02-.081.02-.222.041-.424.061-.646.082h-.485l-.162-.02c-.06 0-.1-.02-.161-.02l-.242-.061c-.02 0-.06-.02-.081-.02l-.162-.04c-.02 0-.06-.021-.08-.021l-.162-.04c-.02-.02-.06-.02-.08-.02-.061-.02-.102-.041-.162-.061l-.142-.081c-.02-.02-.04-.02-.08-.02l-.081-.02-.242-.121c-.02-.02-.04-.02-.081-.04l-.121-.082a4.729 4.729 0 01-.505-.383c-.08-.081-.162-.142-.222-.222-.081-.081-.142-.162-.222-.243-.121-.161-.243-.343-.364-.525-.424-.727-.606-1.575-.505-2.362l.02.141c0 .02 0 .04.02.081l.041.162v.04c0 .02 0 .02.02.04l.02.142c0 .02.02.04.02.08l.021.081.06.081.04.162c.021.02.021.04.021.08l.06.121c.02.02.02.04.02.081l.041.162c.02.02.02.04.02.08l.02.061c.02.02.02.04.02.06l.082.122c.1.161.202.323.323.484.12.142.242.283.383.424.081.061.121.121.202.182.02.02.081.06.121.08.04.021.081.062.122.082.14.12.302.202.484.282l.121.06c.02.021.04.021.06.021l.243.08c.02.021.04.021.06.021l.122.04c.02.02.04.02.08.02l.081.02c.02 0 .04.021.081.021l.162.04c.02 0 .04.02.08.02.182.041.364.061.525.081h.242c.082 0 .182 0 .283-.02.04 0 .081-.02.122-.02h.08l.162-.04c.02 0 .04 0 .08-.02l.122-.02c.02 0 .04-.021.08-.021l.162-.04.121-.04c.02 0 .04-.021.06-.021l.102-.121c.181-.06.323-.121.484-.222a3.32 3.32 0 00.445-.283 3.3 3.3 0 00.747-.747c.1-.141.202-.283.282-.444a5.15 5.15 0 00.222-.485l.04-.12c.021-.021.021-.041.021-.062l.04-.12.04-.162c0-.02.021-.04.021-.081l.02-.121c0-.02.02-.04.02-.08l.04-.162v-.081c0-.04.02-.08.02-.121 0-.081.021-.182.021-.283V8.94c-.02-.182-.02-.364-.08-.525 0-.02-.02-.04-.02-.081l-.041-.162c0-.02-.02-.04-.02-.08l-.02-.081c0-.02-.02-.04-.02-.08l-.041-.122a2.256 2.256 0 00-.222-.505 6.014 6.014 0 00-.283-.484c-.02-.04-.06-.081-.08-.122-.02-.04-.061-.08-.082-.12-.06-.081-.12-.142-.181-.203a8.044 8.044 0 00-.424-.383 2.885 2.885 0 00-.485-.323l-.121-.081c-.02-.02-.04-.02-.06-.02l-.061-.02c-.02-.02-.04-.02-.08-.02l-.163-.041c-.02-.02-.04-.02-.08-.02h-.182c-.02-.02-.04-.02-.08-.02l-.324-.081c-.02 0-.04-.02-.08-.02l-.142-.02c-.02 0-.02 0-.04-.02h-.04l-.162-.041c-.02 0-.04 0-.08-.02l-.041.04z"/><path d="M66.62 9.263a7.704 7.704 0 01.182-2.544 8.635 8.635 0 01.989-2.423c.444-.747 1.03-1.434 1.676-2.04l.121-.12c.04-.041.08-.082.121-.102l.06-.06.081-.06c.04-.021.081-.082.122-.102.181-.121.363-.262.545-.383.383-.243.767-.465 1.191-.626.828-.384 1.696-.606 2.585-.727l.181-.02c.06 0 .121-.02.182-.02h.162c.06 0 .12 0 .181-.02.222-.021.445-.021.687 0 .06 0 .121 0 .182.02h.161c.06 0 .121.02.182.02l.181.02c.02 0 .061 0 .081.02l.081.02c.06 0 .121.02.182.02l.363.04a8.997 8.997 0 012.565.89c.403.221.787.464 1.15.726.182.121.364.283.526.424.181.141.343.303.504.464.162.162.323.323.465.505.141.182.282.343.424.525.12.182.262.384.383.566l.162.282c.02.04.06.101.08.142.02.04.061.1.081.14l.162.324c.02.06.04.1.08.162.041.06.041.1.081.161.081.202.182.424.243.626.08.222.141.424.202.646.06.222.1.444.141.666l.04.364c.02.06.02.121.02.182 0 .06.02.12.02.181l.021.182c0 .06.02.121.02.182v.161c0 .06 0 .121.02.182v.343c0 .121 0 .222-.02.344 0 .06 0 .12-.02.181v.162c0 .06-.02.12-.02.181l-.02.182c-.061.444-.142.889-.263 1.333a9.598 9.598 0 01-.464 1.272c-.182.404-.404.808-.626 1.191-.02.04-.06.081-.081.142l-.04.08c-.02.02-.02.04-.04.081-.021.04-.061.08-.102.121l-.1.121c-.122.182-.283.344-.425.525a8.524 8.524 0 01-2.04 1.676 8.751 8.751 0 01-2.422.99 7.743 7.743 0 01-2.544.181 9.77 9.77 0 002.443-.545 8.067 8.067 0 002.16-1.191 9.105 9.105 0 001.717-1.696c.12-.162.222-.323.343-.485.121-.181.222-.343.303-.525.182-.343.363-.706.505-1.09a8.406 8.406 0 00.504-2.302l.02-.141V9.525c0-.202 0-.383-.02-.585a7.772 7.772 0 00-.161-1.171 7.672 7.672 0 00-.808-2.181c-.1-.182-.181-.343-.303-.505-.1-.161-.222-.323-.323-.484-.12-.162-.242-.303-.363-.465-.121-.141-.263-.282-.404-.424-.141-.141-.283-.282-.424-.404a9.264 9.264 0 00-.464-.363 6.707 6.707 0 00-.485-.323 7.905 7.905 0 00-2.685-1.11c-.384-.081-.788-.122-1.171-.162l-.142-.02H74.616l-.142.02a8.094 8.094 0 00-2.302.505 8.692 8.692 0 00-2.08 1.15 8.54 8.54 0 00-1.695 1.717 8.966 8.966 0 00-1.192 2.16c-.323.707-.525 1.555-.585 2.383z"/></g><defs><clipPath id="a"><path fill="#fff" d="M0 0H95.063V18H0z"/></clipPath></defs></svg>