<svg width="64" height="18" fill="none" xmlns="http://www.w3.org/2000/svg"><g clip-path="url(#a)" fill="#fff"><path d="M20.104 3.803c-1.553 0-2.702.591-3.333 1.68V4.176h-2.254v10.29h2.25V8.92c0-1.884.657-3.238 2.48-3.238s2.023 1.38 2.023 2.794v5.995h2.571V7.92c.005-2.489-1.057-4.116-3.737-4.116zM34.17 3.86h-2.706l-3.763 4.085V.322h-2.25v14.15h2.25v-3.394l1.079-1.206 3.198 4.6h2.628l-4.334-6.253 3.899-4.36zM40.188 8.132l-1.514-.3c-.935-.179-1.431-.553-1.431-1.266 0-.714.952-1.166 1.988-1.166 1.192 0 2.088.374 2.345 1.344h2.228c-.435-2.136-2.35-3.15-4.434-3.15-2.306 0-4.35 1.205-4.35 3.08 0 1.963 1.413 2.733 3.219 3.107l1.61.318c1.053.217 1.849.596 1.849 1.466s-.896 1.383-2.15 1.383c-1.414 0-2.175-.604-2.401-1.714H34.84c.26 1.997 2.01 3.507 4.633 3.507 2.428 0 4.534-1.227 4.534-3.446-.022-2.062-1.67-2.728-3.82-3.163zM49.164 11.517L46.736 3.86h-2.584l3.868 10.508-.118.252c-.474 1.375-.905 1.454-1.931 1.454h-.87V18h1.065c2.41 0 3.111-.735 4.125-3.48l3.764-10.656h-2.428l-2.463 7.653zM59.102 8.132l-1.514-.3c-.936-.179-1.432-.553-1.432-1.266 0-.714.953-1.166 1.989-1.166 1.192 0 2.088.374 2.345 1.344h2.227c-.435-2.136-2.345-3.15-4.433-3.15-2.306 0-4.351 1.205-4.351 3.08 0 1.963 1.41 2.733 3.22 3.107l1.61.318c1.052.217 1.849.596 1.849 1.466s-.892 1.383-2.15 1.383c-1.405 0-2.175-.604-2.402-1.714h-2.306c.262 1.997 2.01 3.507 4.634 3.507 2.428 0 4.534-1.227 4.534-3.446 0-2.062-1.653-2.728-3.82-3.163zM2.3.322H.05v14.15h12.862v-2.254H2.3V.322zM11.237 0a1.853 1.853 0 100 3.707 1.853 1.853 0 000-3.707z"/><path d="M6.803.644H4.232v9.968h8.68V8.68H6.803V.644z"/></g><defs><clipPath id="a"><path fill="#fff" d="M0 0H63.563V18H0z"/></clipPath></defs></svg>