<svg width="106" height="29" fill="none" xmlns="http://www.w3.org/2000/svg"><path d="M27.723 10.047h10.67v1.995H34.19v11.244H31.89V12.042h-4.184l.018-1.995zm10.212 3.654h1.969v1.854h.035c.07-.265.194-.512.37-.76.175-.247.386-.476.65-.67.246-.212.527-.37.843-.494.3-.124.616-.195.932-.195.246 0 .422.018.51.018.088.018.193.035.281.035v2.03c-.14-.035-.299-.053-.457-.07-.158-.018-.299-.036-.457-.036-.352 0-.686.07-1.002.212-.316.141-.58.353-.826.618a3.35 3.35 0 00-.563 1.024c-.14.406-.21.882-.21 1.412v4.554H37.9l.035-9.532zm15.258 9.585h-2.075v-1.342h-.035c-.263.494-.65.865-1.16 1.165-.51.3-1.037.441-1.564.441-1.248 0-2.162-.3-2.725-.935-.562-.618-.843-1.571-.843-2.824V13.7H46.9v5.878c0 .847.158 1.447.492 1.783.316.353.773.53 1.354.53.439 0 .808-.072 1.107-.213.299-.14.545-.317.72-.547.194-.23.317-.512.405-.83.088-.317.123-.67.123-1.04v-5.56h2.11v9.584h-.018zm3.586-3.072c.07.618.298 1.042.703 1.306.404.248.896.371 1.459.371.193 0 .421-.017.668-.053.246-.035.492-.088.703-.176.228-.089.404-.212.545-.389a.906.906 0 00.193-.653c-.018-.265-.105-.494-.299-.67-.193-.177-.422-.3-.703-.424a6.075 6.075 0 00-.984-.265c-.37-.07-.739-.159-1.125-.247a12.152 12.152 0 01-1.143-.318 3.272 3.272 0 01-.984-.512 2.199 2.199 0 01-.686-.811c-.175-.336-.263-.724-.263-1.218 0-.53.123-.954.386-1.307.246-.353.58-.635.967-.847.387-.211.826-.37 1.3-.459a7.413 7.413 0 011.354-.123c.492 0 .967.053 1.407.159.439.106.86.264 1.212.511.37.23.668.548.897.918.246.371.386.83.457 1.36h-2.197c-.106-.512-.334-.848-.686-1.024a2.82 2.82 0 00-1.248-.265c-.14 0-.334.018-.527.035-.211.036-.387.07-.58.142-.176.07-.334.176-.457.3a.708.708 0 00-.194.511c0 .265.088.46.264.618.176.159.404.283.703.406.281.106.615.194.984.265.37.07.756.159 1.143.247s.756.194 1.125.318c.37.123.703.282.984.512.282.211.528.476.703.794.176.318.264.724.264 1.183 0 .564-.123 1.04-.387 1.447a3.293 3.293 0 01-1.002.97c-.404.248-.878.424-1.37.548a7.336 7.336 0 01-1.495.176c-.597 0-1.16-.07-1.67-.212a4.244 4.244 0 01-1.336-.617 2.96 2.96 0 01-.878-1.042c-.211-.406-.334-.9-.352-1.482h2.127v.017h.017zm6.943-6.513h1.6v-2.895h2.109v2.878h1.898v1.57h-1.898v5.12c0 .229.017.405.035.582.017.159.07.3.123.406.07.106.176.194.299.247.14.053.316.088.562.088.14 0 .299 0 .44-.018.14-.017.298-.035.439-.07v1.641a8.994 8.994 0 01-.685.07c-.229.036-.44.036-.686.036-.563 0-1.002-.053-1.336-.159a1.918 1.918 0 01-.79-.459 1.644 1.644 0 01-.388-.759c-.07-.3-.105-.67-.123-1.059v-5.648h-1.6v-1.606.035zm7.083 0h1.987v1.306h.035c.299-.564.703-.953 1.23-1.2a3.971 3.971 0 011.723-.37c.756 0 1.406.123 1.969.405.562.265 1.02.618 1.388 1.095.37.459.65 1.006.826 1.624.176.617.282 1.288.282 1.977 0 .653-.088 1.27-.246 1.87-.176.6-.422 1.148-.756 1.607-.334.459-.756.83-1.283 1.112-.528.282-1.125.423-1.828.423-.3 0-.616-.035-.915-.088a3.88 3.88 0 01-.878-.265 3.151 3.151 0 01-.774-.476 2.685 2.685 0 01-.597-.671h-.036v4.783h-2.109V13.701h-.017zm7.366 4.801a4.32 4.32 0 00-.176-1.253 3.201 3.201 0 00-.51-1.077 2.817 2.817 0 00-.826-.759c-.334-.194-.72-.282-1.143-.282-.879 0-1.547.3-2.004.918-.439.617-.668 1.447-.668 2.47 0 .495.053.936.176 1.342s.282.76.528 1.06c.228.3.51.529.843.705.334.177.703.265 1.143.265.492 0 .879-.106 1.213-.3.334-.194.597-.459.826-.759.21-.318.37-.67.457-1.077.088-.423.14-.83.14-1.253zm3.708-8.454h2.11v1.994h-2.11v-1.995zm0 3.653h2.11v9.585h-2.11V13.7zm3.99-3.654h2.11v13.239h-2.11V10.047zm8.543 13.503c-.756 0-1.441-.123-2.039-.388a4.627 4.627 0 01-1.511-1.041 4.54 4.54 0 01-.932-1.607 6.3 6.3 0 01-.334-2.03c0-.723.105-1.394.334-2.012a4.7 4.7 0 01.932-1.606 4.214 4.214 0 011.511-1.041 5.317 5.317 0 012.04-.389c.755 0 1.44.124 2.038.389.598.247 1.09.6 1.512 1.041.404.441.72.989.932 1.606a6.19 6.19 0 01.334 2.013c0 .74-.106 1.412-.334 2.03-.229.617-.528 1.147-.932 1.606a4.215 4.215 0 01-1.512 1.041 5.252 5.252 0 01-2.039.388zm0-1.677c.457 0 .88-.105 1.213-.3.352-.194.615-.459.844-.776.228-.318.387-.689.492-1.077a4.859 4.859 0 000-2.453 3.171 3.171 0 00-.492-1.077 2.672 2.672 0 00-.844-.759 2.47 2.47 0 00-1.213-.3c-.457 0-.879.106-1.213.3a2.694 2.694 0 00-.843.759 3.17 3.17 0 00-.492 1.077 4.824 4.824 0 000 2.453c.105.406.263.76.492 1.077.228.317.51.582.844.776.351.212.755.3 1.212.3zm5.45-8.172h1.599v-2.895h2.109v2.878h1.899v1.57h-1.899v5.12c0 .229.018.405.035.582.018.159.071.3.124.406.07.106.175.194.298.247.141.053.317.088.563.088.14 0 .299 0 .439-.018.141-.017.299-.035.44-.07v1.641a9.007 9.007 0 01-.686.07c-.228.036-.439.036-.685.036-.563 0-1.002-.053-1.336-.159a1.916 1.916 0 01-.791-.459 1.634 1.634 0 01-.387-.759 6.12 6.12 0 01-.123-1.059v-5.648h-1.6v-1.606.035z" fill="#fff"/><path d="M25.26 10.047h-9.651L12.639.833 9.65 10.047 0 10.029l7.804 5.701-2.988 9.214 7.805-5.701 7.804 5.701-2.97-9.213 7.804-5.684z" fill="#00B67A"/><path d="M18.12 17.814l-.667-2.083-4.817 3.512 5.485-1.43z" fill="#005128"/></svg>