<svg width="98" height="18" fill="none" xmlns="http://www.w3.org/2000/svg"><path fill="#00B67A" d="M0 0H18V18H0z"/><path d="M15.62 7.045L5.41 14.46 6.9 9.878 3 7.045h4.82L9.31 2.46l1.49 4.584h4.82zm-6.31 4.584l2.788-.587 1.111 3.42-3.899-2.833z" fill="#fff"/><path transform="translate(20)" fill="#00B67A" d="M0 0H18V18H0z"/><path d="M35.62 7.045L25.41 14.46l1.49-4.583L23 7.045h4.82l1.49-4.584 1.49 4.584h4.82zm-6.31 4.584l2.788-.587 1.111 3.42-3.899-2.833z" fill="#fff"/><path transform="translate(40)" fill="#00B67A" d="M0 0H18V18H0z"/><path d="M55.62 7.045L45.41 14.46l1.49-4.583L43 7.045h4.82l1.49-4.584 1.49 4.584h4.82zm-6.31 4.584l2.788-.587 1.111 3.42-3.899-2.833z" fill="#fff"/><path transform="translate(60)" fill="#00B67A" d="M0 0H18V18H0z"/><path d="M75.62 7.045L65.41 14.46l1.49-4.583L63 7.045h4.82l1.49-4.584 1.49 4.584h4.82zm-6.31 4.584l2.788-.587 1.111 3.42-3.899-2.833z" fill="#fff"/><path transform="translate(80)" fill="#00B67A" d="M0 0H18V18H0z"/><path fill="#365CBA" d="M84 0H98V18H84z"/><path d="M95.62 7.045L85.41 14.46l1.49-4.583L83 7.045h4.82l1.49-4.584 1.49 4.584h4.82zm-6.31 4.584l2.788-.587 1.111 3.42-3.899-2.833z" fill="#fff"/></svg>